<svg xmlns="http://www.w3.org/2000/svg" viewBox="0 0 512 512" width="512" height="512">
  <defs>
    <linearGradient id="bg" x1="0" y1="0" x2="1" y2="1">
      <stop offset="0%" stop-color="#61afef"/>
      <stop offset="100%" stop-color="#8cc5f6"/>
    </linearGradient>
    <linearGradient id="pen-body" x1="0" y1="0" x2="0" y2="1">
      <stop offset="0%" stop-color="#ffffff"/>
      <stop offset="70%" stop-color="#e8f4fd"/>
      <stop offset="100%" stop-color="#d6ebf8"/>
    </linearGradient>
    <linearGradient id="pen-cone" x1="0" y1="0" x2="0" y2="1">
      <stop offset="0%" stop-color="#d6ebf8"/>
      <stop offset="100%" stop-color="#bddaf2"/>
    </linearGradient>
    <linearGradient id="tip" x1="0.5" y1="0" x2="0.5" y2="1">
      <stop offset="0%" stop-color="#fdcb6e"/>
      <stop offset="100%" stop-color="#e17055"/>
    </linearGradient>
  </defs>

  <!-- Background squircle -->
  <rect x="16" y="16" width="480" height="480" rx="96" fill="url(#bg)"/>

  <!-- === D LETTERFORM WITH INTEGRATED PEN === -->

  <!-- Pen body (vertical stroke of D) -->
  <rect x="152" y="100" width="48" height="275" rx="24" fill="url(#pen-body)"/>

  <!-- Pen clip band (metal ring detail) -->
  <rect x="148" y="340" width="56" height="12" rx="4" fill="#8cc5f6"/>
  <rect x="148" y="346" width="56" height="3" rx="1" fill="#61afef" opacity="0.6"/>

  <!-- Pen cone (tapered section below grip) -->
  <polygon points="152,352 200,352 188,404 164,404" fill="url(#pen-cone)"/>

  <!-- Pen tip (orange/amber accent) -->
  <polygon points="164,404 188,404 176,440" fill="url(#tip)"/>

  <!-- D curve (belly) -->
  <path
    d="M 200 132 C 350 132, 390 200, 390 256 C 390 312, 350 378, 200 378"
    fill="none" stroke="#fff" stroke-width="34" stroke-linecap="round"
  />
</svg>
